<mxfile host="app.diagrams.net" modified="2023-11-24T13:59:27.068Z" agent="Mozilla/5.0 (Macintosh; Intel Mac OS X 10_15_7) AppleWebKit/605.1.15 (KHTML, like Gecko) Version/17.1 Safari/605.1.15" etag="lW7WAjf0JKk3cBHE2fyG" version="22.1.3" type="device">
  <diagram id="C5RBs43oDa-KdzZeNtuy" name="Page-1">
    <mxGraphModel dx="954" dy="528" grid="1" gridSize="10" guides="1" tooltips="1" connect="1" arrows="1" fold="1" page="1" pageScale="1" pageWidth="827" pageHeight="1169" math="0" shadow="0">
      <root>
        <mxCell id="WIyWlLk6GJQsqaUBKTNV-0" />
        <mxCell id="WIyWlLk6GJQsqaUBKTNV-1" parent="WIyWlLk6GJQsqaUBKTNV-0" />
        <mxCell id="FcLP4OEfOv_FY118ZSk2-7" style="edgeStyle=orthogonalEdgeStyle;rounded=0;orthogonalLoop=1;jettySize=auto;html=1;entryX=0.5;entryY=0;entryDx=0;entryDy=0;" edge="1" parent="WIyWlLk6GJQsqaUBKTNV-1" source="FcLP4OEfOv_FY118ZSk2-0" target="FcLP4OEfOv_FY118ZSk2-14">
          <mxGeometry relative="1" as="geometry" />
        </mxCell>
        <mxCell id="FcLP4OEfOv_FY118ZSk2-0" value="upload pdf file" style="rounded=1;whiteSpace=wrap;html=1;" vertex="1" parent="WIyWlLk6GJQsqaUBKTNV-1">
          <mxGeometry x="125" y="120" width="120" height="60" as="geometry" />
        </mxCell>
        <mxCell id="FcLP4OEfOv_FY118ZSk2-11" style="edgeStyle=orthogonalEdgeStyle;rounded=0;orthogonalLoop=1;jettySize=auto;html=1;exitX=0.5;exitY=1;exitDx=0;exitDy=0;" edge="1" parent="WIyWlLk6GJQsqaUBKTNV-1" source="FcLP4OEfOv_FY118ZSk2-3" target="FcLP4OEfOv_FY118ZSk2-9">
          <mxGeometry relative="1" as="geometry" />
        </mxCell>
        <mxCell id="FcLP4OEfOv_FY118ZSk2-3" value="extract tables and transform each table to a text" style="rounded=1;whiteSpace=wrap;html=1;" vertex="1" parent="WIyWlLk6GJQsqaUBKTNV-1">
          <mxGeometry x="90" y="320" width="190" height="80" as="geometry" />
        </mxCell>
        <mxCell id="FcLP4OEfOv_FY118ZSk2-13" style="edgeStyle=orthogonalEdgeStyle;rounded=0;orthogonalLoop=1;jettySize=auto;html=1;exitX=0.5;exitY=1;exitDx=0;exitDy=0;entryX=0.5;entryY=0;entryDx=0;entryDy=0;" edge="1" parent="WIyWlLk6GJQsqaUBKTNV-1" source="FcLP4OEfOv_FY118ZSk2-9" target="FcLP4OEfOv_FY118ZSk2-12">
          <mxGeometry relative="1" as="geometry" />
        </mxCell>
        <mxCell id="FcLP4OEfOv_FY118ZSk2-9" value="with the keyword, transform each text to a vector" style="rounded=1;whiteSpace=wrap;html=1;" vertex="1" parent="WIyWlLk6GJQsqaUBKTNV-1">
          <mxGeometry x="90" y="440" width="190" height="60" as="geometry" />
        </mxCell>
        <mxCell id="FcLP4OEfOv_FY118ZSk2-18" style="edgeStyle=orthogonalEdgeStyle;rounded=0;orthogonalLoop=1;jettySize=auto;html=1;exitX=0.5;exitY=1;exitDx=0;exitDy=0;entryX=0.5;entryY=0;entryDx=0;entryDy=0;" edge="1" parent="WIyWlLk6GJQsqaUBKTNV-1" source="FcLP4OEfOv_FY118ZSk2-12" target="FcLP4OEfOv_FY118ZSk2-17">
          <mxGeometry relative="1" as="geometry" />
        </mxCell>
        <mxCell id="FcLP4OEfOv_FY118ZSk2-12" value="find the most similar table with the keyword" style="rounded=1;whiteSpace=wrap;html=1;" vertex="1" parent="WIyWlLk6GJQsqaUBKTNV-1">
          <mxGeometry x="107.5" y="540" width="155" height="60" as="geometry" />
        </mxCell>
        <mxCell id="FcLP4OEfOv_FY118ZSk2-16" style="edgeStyle=orthogonalEdgeStyle;rounded=0;orthogonalLoop=1;jettySize=auto;html=1;entryX=0.5;entryY=0;entryDx=0;entryDy=0;" edge="1" parent="WIyWlLk6GJQsqaUBKTNV-1" source="FcLP4OEfOv_FY118ZSk2-14" target="FcLP4OEfOv_FY118ZSk2-3">
          <mxGeometry relative="1" as="geometry" />
        </mxCell>
        <mxCell id="FcLP4OEfOv_FY118ZSk2-14" value="enter keyword" style="rounded=1;whiteSpace=wrap;html=1;" vertex="1" parent="WIyWlLk6GJQsqaUBKTNV-1">
          <mxGeometry x="125" y="220" width="120" height="60" as="geometry" />
        </mxCell>
        <mxCell id="FcLP4OEfOv_FY118ZSk2-19" style="edgeStyle=orthogonalEdgeStyle;rounded=0;orthogonalLoop=1;jettySize=auto;html=1;exitX=0.5;exitY=1;exitDx=0;exitDy=0;entryX=0.5;entryY=0;entryDx=0;entryDy=0;" edge="1" parent="WIyWlLk6GJQsqaUBKTNV-1" source="FcLP4OEfOv_FY118ZSk2-17" target="FcLP4OEfOv_FY118ZSk2-0">
          <mxGeometry relative="1" as="geometry">
            <mxPoint x="360" y="260" as="targetPoint" />
            <Array as="points">
              <mxPoint x="185" y="720" />
              <mxPoint x="340" y="720" />
              <mxPoint x="340" y="100" />
              <mxPoint x="185" y="100" />
            </Array>
          </mxGeometry>
        </mxCell>
        <mxCell id="FcLP4OEfOv_FY118ZSk2-17" value="show the table to user" style="rounded=1;whiteSpace=wrap;html=1;" vertex="1" parent="WIyWlLk6GJQsqaUBKTNV-1">
          <mxGeometry x="125" y="640" width="120" height="60" as="geometry" />
        </mxCell>
      </root>
    </mxGraphModel>
  </diagram>
</mxfile>
